# xmcd
#
# Track frame offsets: 
#        150
#        20871
#        40195
#        56636
#        73935
#        89021
#        116117
#        131626
#        146978
#        163663
#        179668
#        199252
#        213499
#        234880
#
# Disc length: 3335 seconds
#
# Revision: 0
# Processed by: cddbd v1.5.2PL0 Copyright (c) Steve Scherf et al.
# Submitted via: ExactAudioCopy v1.0b1
#
DISCID=e20d050e
DTITLE=Anne Sylvestre - 50 ans de chansons CD1
DYEAR=2010
DGENRE=Blues
TTITLE0=Zen
TTITLE1=Elle f'sait la gueule
TTITLE2=Pas difficile
TTITLE3=Ca n'se voit aps du tout
TTITLE4=Les dames de mon quartier
TTITLE5=Partage des eaux
TTITLE6=Les impédiments
TTITLE7=Lazare et Cécile
TTITLE8=Marie
TTITLE9=Gay marions-nous
TTITLE10=Carcasse
TTITLE11=Cap au Nord
TTITLE12=Agressivement vôtre
TTITLE13=Les amis d'autrefois
EXTD=
EXTT0=
EXTT1=
EXTT2=
EXTT3=
EXTT4=
EXTT5=
EXTT6=
EXTT7=
EXTT8=
EXTT9=
EXTT10=
EXTT11=
EXTT12=
EXTT13=
PLAYORDER=
